<?xml version="1.0" encoding="UTF-8"?>
<svg id="Passport" xmlns="http://www.w3.org/2000/svg" xmlns:xlink="http://www.w3.org/1999/xlink" viewBox="0 0 878.19 1271.86">
  <defs>
    <style>
      .cls-1 {
        fill: #ffe4c0;
      }

      .cls-2 {
        fill: url(#linear-gradient);
      }
    </style>
    <linearGradient id="linear-gradient" x1="0" y1="635.93" x2="878.19" y2="635.93" gradientUnits="userSpaceOnUse">
      <stop offset="0" stop-color="#852b35"/>
      <stop offset=".08" stop-color="#c5455a"/>
      <stop offset="1" stop-color="#842c38"/>
    </linearGradient>
  </defs>
  <path class="cls-2" d="M16.66,0h810.06c28.41,0,51.48,23.07,51.48,51.48v1168.9c0,28.41-23.07,51.48-51.48,51.48H16.66c-9.19,0-16.66-7.46-16.66-16.66V16.66C0,7.46,7.46,0,16.66,0Z"/>
  <g>
    <path class="cls-1" d="M603.34,547.94c-3.71.86-7.08,2.43-9.63,5.41-3.46,4.04-3.16,6.33,1.89,8.02,3.1,1.04,4.77,3.25,5.34,5.61.93,3.87,2.98,2.86,5.21,2.06,1.2-.43,2.22-1.47,3.44-1.76,2.7-.64,4.73-.08,4.51,3.41-.1,1.69-.06,3.41.08,5.1.23,2.94.23,4.3-.84,4.83-2.74-1.04-5.7-1.4-8.64-1.71-4.05-.44-8.28-.7-12.11.93-3.16,1.34-5.34,3.85-7.28,6.6-1.88,2.67-3.58,5.95-6.64,7.44-3.54,1.73-7.72,1.27-10.81,4.04-2.46,2.2-3.74,5.9-1.72,8.8,1.5,2.16,6.92,3.35,4.09,6.67-2.62,3.07-8.26.92-11.49.41-3.82-.61-7.6-.26-10.84,2.02-2.82,1.98-4.99,4.95-5.62,8.38-1.39,7.63,3.88,14.22,11.17,15.83,7.62,1.69,16.79,1.61,23.24-3.29,2.91-2.21,5.16-5.12,7.04-8.23.94-1.56,1.8-3.17,2.63-4.79.37-.72.73-1.44,1.1-2.16.37-.73.76-2.03,1.44-2.51.75-.53,1.97-.2,2.83-.2,1.2,0,2.41-.15,3.58-.39,2.27-.46,4.38-1.44,6.3-2.72.81-.54,1.76-1.46,2.78-1.58,1.11-.13,1.16.74,1.54,1.58.78,1.7,2.16,2.94,3.81,3.8,2,1.05,4.21,1.64,6.24,2.63.4.2.8.4,1.19.61,2.17,1.54,4.32,3.12,6.66,4.42,1.06.92,1.9,2.03,1.34,3.25-1.03,2.25-4.2,2.21-6.26,2.16-1.05-.02-1.72.57-1.99,1.33-.1.05-.2.11-.3.18.06.09.13.16.19.24-.2,1.22.5,2.64,2.1,2.67.34,0,.68,0,1.03,0,2.48,1.28,5.37,1.2,7.83-.38,1.43-.92,2.39-2.03,1.94-3.88-.09-.38-.26-.86-.12-1.16,2.94-6.1-1.66-7.84-5.69-9.96-.3-.16-.6-.32-.9-.48-1.63-1.11-3.33-2.09-5.1-2.95-.02-.01-.04-.02-.05-.03-1.25-.78-2.08-1.88-2.26-3.48-.12-1.14-.35-2.47-1.03-3.31-1.18-1.44-1.97-2.76-1.03-4.58.94-1.82,2.7-1.04,4.15-1.36,7.75-1.71,11.37,4.41,16.15,8.34,1,.82,1.7,2.11,2.79,2.7,2.64,1.43,3.23,3.62,2.69,6.24-1.46,7.02,5.05,9.75,7.78,14.5.49.85,1.41.34,1.68-.6.72-2.5,1.56-4.98,2.04-7.53.78-4.1,4.2-7.54,8.33-8.12,1.32-.19,2,.22,2.11,1.56.19,2.21.6,4.41.56,6.61-.06,2.77.79,4.86,2.64,7.03,2.48,2.91,4.98,4.68,8.96,3.8.47-.1.9-.13,1.29-.09-1.18-2.96-2.42-5.89-3.71-8.79-1.15.19-2.2-.56-2.42-1.81-.23-1.32-.25-2.69-.27-4.05-8.25-17.36-18.41-33.63-30.21-48.56-.81,1.63-2.66,3.56-3.82,3.3-4.88-1.07-9.85.86-14.66-.7-1.6-.52-3.49-.74-3.32-3.09.15-2.05.83-3.34,3.15-4.26,3.02-1.21,6.77-2,7.85-6.05.19-.69.06-1.29.01-1.96-6.04-6.69-12.42-13.05-19.13-19.07-.98,1.45-2.82,2.6-4.84,3.07Z"/>
    <path class="cls-1" d="M682.02,662.67c-4.47.71-9.16.1-13.29-1.75-3.89-1.74-6.87-4.86-10.64-6.78-3.5-1.79-7.37-2.25-11.06-.75-.63.26-1.24.56-1.82.9-2.01.49-3.44,1.21-3.64,3.21-.17.23-.34.46-.5.7-.63.94-.92,2.11-1.58,3.01-1.19,1.63-4.19.07-5.79-.41-2.58-.78-5.15-1.63-7.69-2.54-3.96-1.42-9.38-2.73-12.26-6.03-2.8-3.21-2.68-8.05-5.6-11.21-.06-.07-.13-.13-.19-.19-.11-.4-.27-.76-.5-1.06-.76-1-1.68-1.01-2.67-.68-3.09-.8-6.87-.02-9.84.19-5.59.4-11.18,1.08-16.61,2.51-5.5,1.44-10.89,3.41-16.66,2.87-.25-.02-.48,0-.69.04-3.16-.04-6.3.19-9.34.8-7.34,1.49-11.82,7.51-12.87,14.65-.52,3.53-.06,7.04-.46,10.55-.28,2.43-1.84,3.93-3.8,5.32-2.98,2.11-6.15,3.97-9.23,5.92-3.25,2.06-6.87,3.93-9.77,6.48-.99.87-1.72,1.86-2.28,2.93-.21.13-.36.26-.42.4-.08.21-.08.42-.05.63-1.09,2.74-1.22,5.89-1.41,8.9-.15,2.38-.21,4.76-.19,7.13-5.17,13.93,4.24,27.88,13.6,37.86,4.68,4.99,10.2,9.21,16.63,11.66,7.14,2.72,15.04,2.2,22.19-.2,3.46-1.16,6.77-2.97,10.38-3.65,3.16-.59,6.43.26,9.54.82,3.86.7,7.69.86,11.59,1.16,2.85.22,5.31.98,7.15,3.07,1.82,2.07,2.79,4.93,3.63,7.7,1.14,3.75,2.17,7.46,3.76,11.06,2.57,5.81,6.36,10.95,9.55,16.41,1.76,3.02,3.06,5.48,3.97,8.7.97,3.44.99,6.73.48,10.61-.38,2.84-.81,5.68-1.26,8.52-.31.64-.63,1.26-.93,1.84-1.87,3.63-3.95,7.21-5.13,11.15-2.01,6.72-.18,13.68,1.86,20.3.63,4.87,2,9.69,3.61,14.23,1.63,4.59,3.96,8.4,6.59,12.45,2.26,3.49,3.85,7.5,4.31,11.59.13,1.14.52,2.21,1.13,3.09,36.8-44.1,58.98-100.84,58.98-162.67,0-24.8-3.57-48.78-10.22-71.45-.18-.01-.36,0-.56.03Z"/>
    <path class="cls-1" d="M208.81,650.11c2.95,1.17,4.11,2.85,3.98,5.85-.11,2.62.29,5.3-.15,7.84-1.36,7.9,2.16,14.14,6.34,20.24.51.74.93,1.55,1.29,2.38,1.51,3.49,4.24,5.05,7.73,4.42,1.49-.27,1.71-1.3,1.79-2.58.24-3.7-1.77-6.61-3.92-9.05-5.53-6.26-6.89-13.66-7.01-21.57-.03-1.7,1.01-2.44,2.36-2.6,1.97-.24,4.02-.22,5.16,1.89.82,1.51,1.38,3.14,1.23,4.89-.53,6.49,2.53,11.62,6.17,16.57.68.92,1.35,1.85,2.01,2.79.88,5.56,1.73,11.13,2.67,16.67.76,4.45,2.07,9.07,5.6,12.15,3.56,3.1,8.24,4.07,12.7,5.09,5.57,1.28,11.1,2.77,16.55,4.47,5.41,1.69,10.8,3.53,16.04,5.7,4.69,1.95,7.91,4.94,11.16,8.75,3.13,3.67,6.32,7.18,10.63,9.48,2.15,1.15,4.49,2.05,6.88,2.58,2.67.6,5.7.27,8.27,1.21,5.1,1.86,4.54,8.49,2.58,12.41-2.4,4.8-6.97,9.16-5.39,14.94-.72,3.35-1.23,6.71-1.29,10.08-.07,3.49.23,5.71,1.6,9.15,1.29,3.24,3.13,6.31,5.08,9.19,3.48,5.14,8.69,9.48,10.94,15.75.22.62.4,1.27.64,1.88,0-.04.44.85.54,1.02.21.37.44.73.68,1.07.03,0,.52.57.71.75.22.21.45.41.67.62.01.01.02.02.03.03.47.32.94.63,1.43.92,1.04.61,2.12,1.13,3.21,1.64,5.54,2.56,11.43,5.92,15.33,10.73.67.83,1.22,1.68,1.67,2.54-.02.24-.02.49-.01.74,1,28.6-5.89,58.13,3.52,85.98,1.38,4.07,3.01,7.93,5.19,11.4.17,2.97,1.19,5.62,3.08,8.27,3.69,5.17,5.33,11.67,10.3,16.05,3.87,3.41,7.7,6.86,11.55,10.29.82.73,1.81.96,2.91.95,3.27-.03,6.55-.11,9.81.03,1.59.07,2.38-.68,3.07-1.9.77-1.37-.02-2.31-.88-3.09-2.51-2.28-5.06-4.51-7.67-6.66-2.71-2.24-2.62-4.88-1.25-7.72.56-1.17,1.33-2.19,1.53-3.56.85-5.78.88-5.76-4.82-6.64-2.6-.4-3.9-2.66-4.98-4.49-1.12-1.9.68-3.34,2.29-4.72,3.69-3.17,4.93-5.5-.56-8.04-2.07-.96-2.33-2.71-2.04-4.61.32-2.1,2-2.04,3.63-2.05,6.52-.04,11.57-4.35,17.48-6.07,5.8-1.69,6.62-7.04,9.41-11.02,3.73-5.3,7.37-10.8,11.92-15.35,3.02-3.02,3.81-6.18,3.58-9.33,1.09-3.22,1.82-6.51,2.89-9.77.87-2.65,2.2-5.23,4.54-6.41.1-.05.15-.08.19-.1.1-.03.24-.07.43-.13.37-.11.75-.21,1.12-.3.38-.09.77-.15,1.15-.23,1.07-.2.62-.1.37-.07,2-.29,4.04-.42,6.02-.88,4.05-.94,7.71-3.44,9.5-7.27,1.74-3.72,1.79-7.8,1.61-11.83-.17-3.74-.11-7.41.58-11.1.82-4.33,2.11-8.56,3.5-12.74,1.38-4.14,3.15-8.29,4.1-12.55,1.02-4.6.51-9.41-2.88-12.95-2.48-2.58-5.97-4.04-9.41-4.79-8.09-1.78-16.35-1.96-24.29-4.61-6.46-2.16-12.21-5.95-15.4-11.48-.92-1.59-1.15-2.17-1.62-3.89-.56-2.08-.77-4.24-1.28-6.33-1-4.11-3.34-7.75-6.53-10.51-11.98-10.39-28.72-12.45-44.09-10.17-4.04-.79-7.25-2.86-10.63-5.19-1.4-.96-5.37-3.72-7.74-4.58-2.37-.86-3.68-.92-4-.93-1.71-.11-3.39.31-5.04,1.73-3.35,2.87-5.21,8.52-10.04,9.28-2.7.43-5.58-.9-8.11-1.7-1.27-.4-2.54-.8-3.81-1.2-1.22-.38-2.72-.63-3.78-1.36-1.85-1.3-2.3-5.06-2.92-7.15-.48-1.66-.94-3.32-1.37-4.99,0-.11-.02-.21-.03-.32-.16-2.31.31-4.97-.27-7.21-.54-2.07-2.21-2.94-4.16-3.34-2.42-.5-5.45-.5-7.64-1.73-2-1.12-1.34-2.86-.69-4.58.14-.29.27-.59.39-.89.72-1.79,2.08-3.49,2.48-5.38.25-1.17.57-2.63-.08-3.58-1.08-1.66-2.12-2.63-3.7-2.87-4.91-.74-8.63,1.19-12.45,4.1-2.98,2.27-6.16,4.52-9.93,5.16-2.89.49-6.44-.11-8.34-2.54-1.85-2.36-1.92-5.73-1.51-8.58,1-6.9,4.73-13.86,10.14-18.28,5.9-4.82,13.89-5.83,21.24-6.18,4.13-.2,8.28-.2,12.41-.38,1.01-.04,2.02-.12,3.04-.16.42-.02,1.01-.09,1.44-.02.49.08.16-.02.05-.04.22.04.33.06.38.07-.07,0-.18,0,0,.14.08.06.42.42.48.46.44.58.78,1.26,1.11,1.9,1.63,3.15,3.01,6.49,6.12,8.5,3.91,2.52,9.12,1.4,11.25-2.84,1.47-2.93,1.01-6.35,2.45-9.26,1.57-3.16,4.51-5.52,7.32-7.53,3.22-2.3,6.59-4.49,9.42-7.28,3.37-3.34,4.89-7.24,6.89-11.43,3.84-8.02,11.98-12.94,18.64-18.4,4.07-3.33,8.02-6.79,11.86-10.38,3.45-3.23,7.47-6.76,8.22-11.7,0-.02,0-.03,0-.05,1.41-.17,2.87.23,4.39,1.08,1.72.96,2.83.75,3.47-.78.86-2.06-1.17-1.45-2.04-1.73-2.62-.86-5.75-1.44-5.95-4.77-.17-2.89,2.3-4.91,4.62-5.74,2.79-1,5.98-.8,8.31,1.81,3.89,4.36,9.08,4.3,13.2-.07,1.74-1.85,3.51-1.46,5.54-.11,3.35,2.23,6.71.6,9.5-1.14,2.73-1.7,1.71-4.85,1.37-7.54-.38-2.95-3.53-3.4-5.11-4.12-4.41-2.01-5.02-5.15-4.79-9.14.06-1.04.05-2.09.05-3.13,0-1.25.73-2.78-.7-3.61-1.35-.78-2.36.49-3.53.98-3.29,1.4-6.11,3.95-9.91,4.11-2.82.12-4.76-.59-3.88-4.03.03-.13.03-.26.04-.39q.58-7.4-6.62-8.61c-2.68-.46-4.83-2.4-7.78-2.4-5.34,0-9.48,3.62-9.57,8.93-.04,2.23,0,4.45-.02,6.68-.05,7.46-.51,8.07-8.02,9.68-2.45.52-5.46.8-6.42,3.06-.06.14-.12.28-.18.41-.95.9-1.77,1.97-2.5,3.13-1.32,2.08-2.97,6.19-6.03,5.93-2.59-.22-1.75-4.61-1.86-6.34-.11-1.68-.52-3.22-1.32-4.54-.03-.9-.24-1.7-1.43-1.8-.03,0-.05,0-.08,0-.29-.26-.6-.5-.94-.72-2.8-1.85-6.17-1.82-9.29-2.71-2.99-.85-5.86-2.77-7.51-5.45-1.43-2.33-2.23-5.67-.41-8.03,1.94-2.5,5.42-4.27,8.06-5.91,3.4-2.11,6.94-4,10.58-5.66,3.03-1.38,7.88-4.18,11.26-2.65,1.53.69,2.95-.37,3.3-1.6.21.42.35.95.43,1.64.2,1.88,1.21,3.04,3.1,3.58,2.23.63,2.68-.94,3.29-2.39.95-2.26,3.41-.62,4.74-1.77.23-1.09-.73-1.33-1.17-1.91-1.83-2.38-.97-5.08,1.92-4.94,3.85.19,6.57-1.2,8.82-3.63.13-.06.26-.14.39-.24,3.1-2.38,6.74-3.61,10.6-4.09,3.82-.48,8.39-.78,11.93.99,1.41.71,3.06,1.92,3.54,3.51.49,1.64-1.04,2.65-2.3,3.34-3.65,2-8.06,3.05-12.06,4.06-2.03.51-2.18,3.84,0,4.26,2.45.47,4.91.95,7.36,1.42.22.04.43.05.62.04.38.08.76.15,1.14.21,2.96.45,5.91.5,8.63,2.09,2.36,1.37,4.08.3,4.76-2.19,1.15-4.21,3.69-6.12,8-4.93,4.43,1.22,6.06-1.91,7.84-4.8.98-1.6-.37-1.77-1.43-1.75-4.57.1-6.11-2.39-5.48-6.52.72-4.66-2.36-5.66-5.81-7.01-5.57-2.19-10.7-6.02-16.63-6.7-7.91-.91-15.83-.48-22.95,3.44-1.31.44-2.57.98-3.67,1.69-2.43,1.57-3.63,4.01-3.77,6.87-.11,2.12.1,5.03,2.09,5.96-5.48,1.36-10.21-2.38-10.02-8.3.04-1.29.42-2.16,1.43-3,1.62-1.34,3.16-2.79,5.02-4.51.12-.03.23-.05.35-.08.98-.23,1.46-.92,1.56-1.68.04-.03.07-.06.11-.1-.03,0-.06,0-.1,0,.06-.74-.24-1.52-.8-2.03-.07-1.04-.78-2.03-2.13-2.02-3.29.01-6.55.29-9.79.83-2.59.43-5.06.99-7.17,2.53-.56.07-1.13.27-1.72.74-1.45,1.15-1.95,3.19-1.16,4.88.73,1.57,2.3,2.31,3.88,2.77.7.21,1.59.21,1.89.88.43.93-.19,2.96-.42,3.85-.08.32-.1.62-.06.9-1,.94-2.17,1.6-3.19,1.64-1.44.06-2.88.05-4.32.03-1.72-.02-3.14.53-3.8,2.2-.99,2.47-2.73,3.07-5.29,2.89-2.99-.21-6.01.07-9.01.16-3.6.11-4.82-1.73-5.29-6.59-.37-3.84,1.28-4.99,4.71-4.72.52.04,1.07-.1,1.57,0,5.52,1.11,9.49-1.48,12.87-5.4.77-.9,2.52-1.82,1.2-3.14-1.14-1.14-3.28-1.24-4.15.24-3.04,5.16-7.91,4.33-12.7,4.63-4.47.27-6.68-2.16-8.39-5.53-1.67-3.29-3.46-4.69-7.85-4.82-5.27-.15-9.4,1.2-13.27,3.86-1.96.57-3.83,1.46-5.53,2.65-1.43,1-1.48,3.62.53,4.04,2.33.49,5.14.95,6.82,2.8,1.49,1.63,2.06,3.83,4.06,5.05,2.48,1.51,5.74,1.09,8.43,2.11.94.36,2.23.81,1.22,1.88-.88.93-2.65.84-3.8.86-2.86.05-6.31.54-9.09-.32-2.58-.8-4.8-2.89-6.99-4.39-4.8-3.28-10.33-5.74-16.22-4.25-.59.15-.99.46-1.25.85-.17,0-.34-.01-.51-.02-41.89,29.12-74.64,70.53-92.99,118.98.14,3.73,3.99,4.66,7.03,5.87ZM362.08,605.03c2.47-.09,3,2.11,3.28,3.72.32,1.87-1.61,1.94-2.83,2.25-1.82-.33-3.83-.27-3.7-2.72.1-1.91,1.26-3.18,3.25-3.25ZM355.49,614.17c.2-1.12.72-2.43,1.76-2.21,2.77.6,5.84.29,8.25,1.97,1.5,1.04,3.09,2.15,2.19,4.79-1.06,3.1-3.23,2.42-5.38,2.38-5.24-.1-7.61-2.54-6.82-6.93ZM324.8,615.95c.69-1.5,1.5-2.94,2.39-4.33.9-1.4,2.15-2.63,2.97-4.07.15-.27.27-.55.36-.84.04-.1.07-.19.07-.29.12-.63.04-1.28-.34-1.88-.63-.99-1.83-.96-2.53-1.76-1.48-1.68.95-3.48,2.27-4.09,1.65-.76,3.51-1.11,5.3-1.31,3.53-.4,7.6-.88,10.8.89,1.24.69,2.4,1.33,3.76,1.75,1.61.5,4.6.8,4.87,2.96.05.41.24.72.5.94.29,3.53-.65,8.45-2.4,9.49-2.01,1.2-1.53,2.01-.5,3.64,2.53,3.99.17,8.69-4.52,9.35-1.29.18-2.61.14-3.92.17-1.57.04-3.56.25-3.95-1.64-.43-2.05.14-4.26,2.2-5.39,1.92-1.06,4.03-1.76,7.25-3.12-5.85-.65-5.52-3.89-4.9-7.27.19-1.06,2.23-2.3.1-3.11-.5-.19-1.06-.31-1.62-.34-.3-.41-.8-.68-1.43-.56-2.64.51-3.72,2.97-4.76,5.17-1.54,3.25-3.44,6.37-5.73,9.17-.79.97-1.52,1.85-2.91,1.57-.63-.12-1.33-.39-1.91-.65-.68-.31-1.7-.78-2.03-1.49-.48-1.02.2-2.06.62-2.98ZM313.31,579.16c2.09-1.16,5.6-1.28,7.86-.58,1.59.49,1.94,1.8,1.97,3.43.03,1.38-.43,2.53-1.71,3.16-.2.1-.36.23-.47.37-.23,0-.46.08-.7.27-1.97,1.48-4.67,2.11-6.68.31-1.81-1.61-2.72-5.59-.26-6.96ZM302.07,553.15c-.81.09-1.25.73-1.33,1.37-2.37.11-4.73.21-7.1.32-1.25.06-2.95.43-4.18.14-.66-.15-1.36-.43-1.22-1.35.1-.61.35-.65.93-.94,2.4-1.21,5.11-1.67,7.76-1.88,1.25-.1,2.51-.13,3.77-.16.44,0,1.5-.19,1.87.18.4.4-.06,2.26-.51,2.31ZM287.98,537.58c2.73-1.05,5.64-2.1,8.57-2.31,1.35-.1,3.21-.16,4.43.49,1.7.92,1.36,3.64-.19,4.56-.12.07-.21.15-.3.23-.19-.02-.4,0-.63.1-2.91,1.17-5.95,1.82-9.1,1.73-1.4-.04-3.33-.15-4.35-1.3-1.53-1.71-.03-2.88,1.57-3.5Z"/>
    <path class="cls-1" d="M439.1,990.76c-34.6,0-68.17-6.79-99.77-20.17-30.52-12.93-57.93-31.43-81.47-55-23.54-23.57-42.02-51.02-54.93-81.58-13.37-31.64-20.14-65.26-20.14-99.9s6.78-68.26,20.14-99.9c12.91-30.56,31.39-58.01,54.93-81.58,23.54-23.57,50.95-42.08,81.47-55,31.6-13.38,65.17-20.17,99.77-20.17s68.17,6.79,99.77,20.17c30.52,12.93,57.93,31.43,81.47,55,23.54,23.57,42.02,51.02,54.93,81.58,13.37,31.64,20.14,65.26,20.14,99.9s-6.78,68.26-20.14,99.9c-12.91,30.56-31.39,58.01-54.93,81.58-23.54,23.57-50.95,42.08-81.47,55-31.6,13.38-65.17,20.17-99.77,20.17ZM439.1,480.25c-139.78,0-253.5,113.87-253.5,253.85s113.72,253.85,253.5,253.85,253.5-113.87,253.5-253.85-113.72-253.85-253.5-253.85Z"/>
  </g>
  <g>
    <path class="cls-1" d="M162.04,272.39v-84.23h25.98c9.26,0,16.29,2.02,21.09,6.04,4.79,4.03,7.19,10.03,7.19,18.01s-2.42,13.94-7.25,18.13c-4.83,4.19-11.84,6.28-21.03,6.28h-13.78v35.77h-12.21ZM174.25,225.74h12.57c5.4,0,9.63-1.07,12.69-3.2,3.06-2.13,4.59-5.54,4.59-10.21s-1.47-7.94-4.41-10.03c-2.94-2.09-7.23-3.14-12.87-3.14h-12.57v26.59Z"/>
    <path class="cls-1" d="M212.08,272.39l32.75-84.23h9.55l32.63,84.23h-13.41l-23.93-66.35-24.05,66.35h-13.54ZM231.41,253.66l3.75-11h28.76l4.11,11h-36.62Z"/>
    <path class="cls-1" d="M324.35,273.84c-8.62,0-15.69-2.25-21.21-6.77-5.52-4.51-8.88-10.51-10.09-18.01l11.96-2.9c.89,5.48,3.1,9.63,6.65,12.45,3.54,2.82,7.9,4.23,13.05,4.23,2.98,0,5.62-.54,7.92-1.63,2.3-1.09,4.13-2.66,5.5-4.71,1.37-2.05,2.05-4.37,2.05-6.95,0-2.74-.75-4.99-2.24-6.77-1.49-1.77-3.59-3.36-6.28-4.77-2.7-1.41-5.94-2.84-9.73-4.29-4.92-1.85-9.12-3.87-12.63-6.04-3.5-2.18-6.21-4.77-8.1-7.79-1.89-3.02-2.84-6.67-2.84-10.94s1.07-8.2,3.2-11.54c2.13-3.34,5.14-5.98,9-7.92,3.87-1.93,8.34-2.9,13.42-2.9,5.4,0,10.21,1.23,14.44,3.69,4.23,2.46,7.59,6.14,10.09,11.06l-9.79,6.04c-1.77-3.22-3.93-5.68-6.47-7.37-2.54-1.69-5.42-2.54-8.64-2.54-2.5,0-4.73.48-6.71,1.45-1.98.97-3.5,2.28-4.59,3.93-1.09,1.65-1.63,3.61-1.63,5.86s.66,4.35,1.99,6.04c1.33,1.69,3.3,3.2,5.92,4.53,2.62,1.33,5.9,2.72,9.85,4.17,4.99,1.93,9.26,4.01,12.81,6.22,3.54,2.22,6.28,4.85,8.22,7.92,1.93,3.06,2.9,6.81,2.9,11.24,0,4.83-1.19,9.12-3.57,12.87-2.38,3.75-5.66,6.71-9.85,8.88-4.19,2.18-9.06,3.26-14.62,3.26Z"/>
    <path class="cls-1" d="M392.99,273.84c-8.62,0-15.69-2.25-21.21-6.77-5.52-4.51-8.88-10.51-10.09-18.01l11.96-2.9c.89,5.48,3.1,9.63,6.65,12.45,3.54,2.82,7.89,4.23,13.05,4.23,2.98,0,5.62-.54,7.92-1.63,2.3-1.09,4.13-2.66,5.5-4.71,1.37-2.05,2.05-4.37,2.05-6.95,0-2.74-.75-4.99-2.24-6.77-1.49-1.77-3.59-3.36-6.28-4.77-2.7-1.41-5.94-2.84-9.73-4.29-4.92-1.85-9.12-3.87-12.63-6.04-3.5-2.18-6.2-4.77-8.1-7.79-1.89-3.02-2.84-6.67-2.84-10.94s1.07-8.2,3.2-11.54c2.13-3.34,5.14-5.98,9-7.92,3.87-1.93,8.34-2.9,13.41-2.9,5.4,0,10.21,1.23,14.44,3.69,4.23,2.46,7.59,6.14,10.09,11.06l-9.79,6.04c-1.77-3.22-3.93-5.68-6.47-7.37-2.54-1.69-5.42-2.54-8.64-2.54-2.5,0-4.73.48-6.71,1.45-1.98.97-3.5,2.28-4.59,3.93-1.09,1.65-1.63,3.61-1.63,5.86s.66,4.35,1.99,6.04c1.33,1.69,3.3,3.2,5.92,4.53,2.62,1.33,5.9,2.72,9.85,4.17,4.99,1.93,9.26,4.01,12.81,6.22,3.54,2.22,6.28,4.85,8.22,7.92,1.93,3.06,2.9,6.81,2.9,11.24,0,4.83-1.19,9.12-3.57,12.87-2.38,3.75-5.66,6.71-9.85,8.88-4.19,2.18-9.06,3.26-14.62,3.26Z"/>
    <path class="cls-1" d="M435.17,272.39v-84.23h25.98c9.26,0,16.29,2.02,21.09,6.04,4.79,4.03,7.19,10.03,7.19,18.01s-2.42,13.94-7.25,18.13c-4.83,4.19-11.84,6.28-21.03,6.28h-13.78v35.77h-12.21ZM447.37,225.74h12.57c5.4,0,9.63-1.07,12.69-3.2,3.06-2.13,4.59-5.54,4.59-10.21s-1.47-7.94-4.41-10.03c-2.94-2.09-7.23-3.14-12.87-3.14h-12.57v26.59Z"/>
    <path class="cls-1" d="M538.38,273.96c-7.82,0-14.68-1.81-20.61-5.44-5.92-3.63-10.54-8.72-13.84-15.29-3.3-6.57-4.95-14.2-4.95-22.9s1.65-16.45,4.95-23.02c3.3-6.57,7.92-11.66,13.84-15.29,5.92-3.63,12.79-5.44,20.61-5.44s14.94,1.81,20.91,5.44c5.96,3.63,10.59,8.72,13.9,15.29,3.3,6.57,4.95,14.24,4.95,23.02s-1.67,16.34-5.02,22.9c-3.34,6.57-8,11.66-13.96,15.29-5.96,3.63-12.89,5.44-20.79,5.44ZM538.38,262.24c5.64,0,10.47-1.31,14.5-3.93,4.03-2.62,7.17-6.32,9.43-11.12,2.25-4.79,3.38-10.41,3.38-16.86s-1.13-12.18-3.38-16.98c-2.26-4.79-5.4-8.5-9.43-11.12-4.03-2.62-8.86-3.93-14.5-3.93s-10.25,1.29-14.32,3.87c-4.07,2.58-7.21,6.27-9.43,11.06-2.22,4.79-3.32,10.5-3.32,17.1s1.11,12.19,3.32,16.98c2.21,4.79,5.36,8.48,9.43,11.06,4.07,2.58,8.84,3.87,14.32,3.87Z"/>
    <path class="cls-1" d="M592.88,272.39v-84.23h25.98c6.61,0,11.98.97,16.13,2.9,4.15,1.93,7.21,4.69,9.19,8.28,1.97,3.59,2.96,7.84,2.96,12.75,0,7.25-2.08,12.93-6.22,17.04-4.15,4.11-10.13,6.49-17.95,7.13-1.37.08-2.94.12-4.71.12h-13.05v36.01h-12.33ZM605.21,225.5h12.45c3.38,0,6.34-.42,8.88-1.27,2.54-.85,4.57-2.24,6.1-4.17,1.53-1.93,2.3-4.55,2.3-7.86s-.77-5.9-2.3-7.79c-1.53-1.89-3.59-3.24-6.16-4.05-2.58-.8-5.52-1.21-8.82-1.21h-12.45v26.35ZM639.53,272.39l-21.63-37.46,12.57-1.57,23.2,39.04h-14.14Z"/>
    <path class="cls-1" d="M683.64,272.39v-73.24h-27.55v-11h67.44v11h-27.43v73.24h-12.45Z"/>
  </g>
  <g>
    <path class="cls-1" d="M381.9,1130.21v32.97h37.94c1.46-9.34,9.51-16.49,19.26-16.49s17.8,7.15,19.26,16.49h37.94v-32.97h-114.4Z"/>
    <path class="cls-1" d="M458.35,1169.24c-1.46,9.34-9.51,16.49-19.26,16.49s-17.8-7.15-19.26-16.49h-37.94v32.97h114.4v-32.97h-37.94Z"/>
  </g>
  <circle class="cls-1" cx="439.1" cy="1166.21" r="14.37"/>
</svg>