<?xml version="1.0" encoding="UTF-8"?>
<svg id="home" xmlns="http://www.w3.org/2000/svg" viewBox="0 0 560.84 538.5">
  <defs>
    <style>
      .cls-1 {
        fill: #f9e46f;
        stroke: #fdb467;
        stroke-miterlimit: 10;
        stroke-width: 5px;
      }
    </style>
  </defs>
  <path class="cls-1" d="M500.19,287.75c-6.8,45.58,45.64,79.6,41.51,138.32-2.07,29.39-17.89,59-40.85,76.2-35.64,26.68-91.81,26.07-123.57,15.32-6.32-2.14-20.82-7.75-40.85-8.3-7.52-.21-20.91-.57-36.61,3.97-5.85,1.7-11.28,3.66-26.58,8.37-3.05.94-7.16,2.22-12.78,3.61-10.63,2.63-20.05,4.02-30.64,5.52-41.38,5.87-77.2,10.94-108-8.99-12.98-8.4-20.2-18.08-21.99-20.57-17.52-24.28-10.55-45.2-16.25-68.42-11.6-47.23-59.83-40.2-77.02-83.71-18.21-46.11,31.45-65.41,22.47-135.83-6.24-48.89-33.65-67.81-22.47-109.28,5.74-21.29,18.3-35.56,26.55-44.94,8.07-9.17,39.69-45.1,81.04-45.4,36.41-.26,39.99,27.41,75.83,28.25,35.73.84,40.53-26.59,88.09-36.89,5.17-1.12,53.64-10.11,97.45,14.68,33.65,19.04,30.75,40.68,63.04,51.61,28.04,9.5,37.51-3.97,64.34,7.59,32.69,14.08,46.09,45.89,48,50.62,3.53,8.74,12.95,33.12,3.06,61.28-7.59,21.63-22.56,34.04-29.1,38.86,0,0-19.51,23.58-24.67,58.11Z"/>
</svg>