<?xml version="1.0" encoding="UTF-8"?>
<svg id="Passport" xmlns="http://www.w3.org/2000/svg" xmlns:xlink="http://www.w3.org/1999/xlink" viewBox="0 0 880.2 1271.86">
  <defs>
    <style>
      .cls-1 {
        fill: url(#linear-gradient-2);
      }

      .cls-2 {
        fill: url(#linear-gradient);
      }
    </style>
    <linearGradient id="linear-gradient" x1="2" y1="635.93" x2="880.2" y2="635.93" gradientUnits="userSpaceOnUse">
      <stop offset="0" stop-color="#852b35"/>
      <stop offset=".08" stop-color="#c5455a"/>
      <stop offset="1" stop-color="#842c38"/>
    </linearGradient>
    <linearGradient id="linear-gradient-2" x1="0" y1="633.73" x2="852.45" y2="633.73" gradientUnits="userSpaceOnUse">
      <stop offset="0" stop-color="#f2ede9"/>
      <stop offset="1" stop-color="#e7d9d0"/>
    </linearGradient>
  </defs>
  <path class="cls-2" d="M18.66,0h810.06c28.41,0,51.48,23.07,51.48,51.48v1168.9c0,28.41-23.07,51.48-51.48,51.48H18.66c-9.19,0-16.66-7.46-16.66-16.66V16.66C2,7.46,9.47,0,18.66,0Z"/>
  <path class="cls-1" d="M16.17,16.44h786.31c27.58,0,49.97,22.39,49.97,49.97v1134.64c0,27.58-22.39,49.97-49.97,49.97H16.17c-8.92,0-16.17-7.24-16.17-16.17V32.6c0-8.92,7.24-16.17,16.17-16.17Z"/>
</svg>